<svg width="1886" height="364" viewBox="0 0 1886 364" fill="none" xmlns="http://www.w3.org/2000/svg">
<path d="M300 80.6648L150 161.834V364L300 282.327V80.6648Z" fill="url(#paint0_linear_307_7)"/>
<path d="M1.05314 80.6662L150 0.567715L298.947 80.6662L150 161.265L1.05314 80.6662Z" fill="white" stroke="#E9E9E9"/>
<path d="M2.05278 81.1701L150 1.57582L297.947 81.1701L150 161.265L2.05278 81.1701Z" fill="white" stroke="white"/>
<path d="M0 80.6648L150 161.834V364L0 282.327V80.6648Z" fill="url(#paint1_linear_307_7)"/>
<path d="M387.085 283.5V79.8636H463.449C479.093 79.8636 492.218 82.7803 502.824 88.6136C513.496 94.447 521.55 102.468 526.986 112.676C532.488 122.818 535.239 134.352 535.239 147.278C535.239 160.337 532.488 171.937 526.986 182.08C521.484 192.222 513.364 200.209 502.625 206.043C491.886 211.81 478.662 214.693 462.952 214.693H412.341V184.366H457.98C467.128 184.366 474.618 182.776 480.452 179.594C486.285 176.412 490.594 172.037 493.378 166.469C496.228 160.901 497.653 154.504 497.653 147.278C497.653 140.053 496.228 133.689 493.378 128.188C490.594 122.686 486.252 118.41 480.352 115.361C474.519 112.245 466.995 110.688 457.781 110.688H423.974V283.5H387.085ZM601.684 79.8636V283.5H565.69V79.8636H601.684ZM706.311 286.483C690.999 286.483 677.774 283.301 666.638 276.938C655.568 270.508 647.05 261.426 641.084 249.693C635.118 237.894 632.135 224.007 632.135 208.031C632.135 192.321 635.118 178.533 641.084 166.668C647.116 154.736 655.535 145.455 666.339 138.827C677.144 132.132 689.839 128.784 704.422 128.784C713.835 128.784 722.717 130.309 731.07 133.358C739.488 136.341 746.912 140.981 753.342 147.278C759.839 153.576 764.943 161.597 768.655 171.341C772.367 181.019 774.223 192.553 774.223 205.943V216.98H649.038V192.719H739.72C739.654 185.825 738.162 179.693 735.246 174.324C732.329 168.888 728.252 164.613 723.016 161.497C717.845 158.382 711.813 156.824 704.919 156.824C697.561 156.824 691.098 158.614 685.53 162.193C679.962 165.706 675.62 170.347 672.504 176.114C669.455 181.814 667.897 188.079 667.831 194.906V216.085C667.831 224.968 669.455 232.591 672.703 238.955C675.951 245.252 680.492 250.091 686.325 253.472C692.159 256.786 698.986 258.443 706.808 258.443C712.045 258.443 716.785 257.714 721.027 256.256C725.269 254.731 728.948 252.51 732.064 249.594C735.179 246.677 737.533 243.064 739.124 238.756L772.732 242.534C770.61 251.417 766.567 259.172 760.601 265.801C754.701 272.364 747.144 277.468 737.93 281.114C728.716 284.693 718.177 286.483 706.311 286.483ZM872.288 286.483C856.975 286.483 843.751 283.301 832.614 276.938C821.544 270.508 813.026 261.426 807.06 249.693C801.094 237.894 798.112 224.007 798.112 208.031C798.112 192.321 801.094 178.533 807.06 166.668C813.093 154.736 821.511 145.455 832.316 138.827C843.121 132.132 855.815 128.784 870.398 128.784C879.811 128.784 888.694 130.309 897.046 133.358C905.465 136.341 912.889 140.981 919.319 147.278C925.815 153.576 930.919 161.597 934.631 171.341C938.344 181.019 940.2 192.553 940.2 205.943V216.98H815.015V192.719H905.697C905.63 185.825 904.139 179.693 901.222 174.324C898.306 168.888 894.229 164.613 888.992 161.497C883.822 158.382 877.79 156.824 870.896 156.824C863.538 156.824 857.075 158.614 851.506 162.193C845.938 165.706 841.596 170.347 838.481 176.114C835.432 181.814 833.874 188.079 833.808 194.906V216.085C833.808 224.968 835.432 232.591 838.68 238.955C841.928 245.252 846.469 250.091 852.302 253.472C858.135 256.786 864.963 258.443 872.785 258.443C878.022 258.443 882.761 257.714 887.004 256.256C891.246 254.731 894.925 252.51 898.04 249.594C901.156 246.677 903.509 243.064 905.1 238.756L938.708 242.534C936.587 251.417 932.543 259.172 926.577 265.801C920.678 272.364 913.121 277.468 903.907 281.114C894.693 284.693 884.153 286.483 872.288 286.483ZM970.651 340.773V130.773H1006.05V156.028H1008.14C1009.99 152.316 1012.61 148.372 1015.99 144.196C1019.37 139.954 1023.95 136.341 1029.71 133.358C1035.48 130.309 1042.84 128.784 1051.79 128.784C1063.59 128.784 1074.23 131.8 1083.7 137.832C1093.25 143.798 1100.81 152.648 1106.38 164.381C1112.01 176.047 1114.83 190.366 1114.83 207.335C1114.83 224.106 1112.08 238.358 1106.57 250.091C1101.07 261.824 1093.58 270.773 1084.1 276.938C1074.62 283.102 1063.88 286.185 1051.89 286.185C1043.14 286.185 1035.88 284.726 1030.11 281.81C1024.34 278.893 1019.7 275.38 1016.19 271.27C1012.74 267.094 1010.06 263.15 1008.14 259.438H1006.64V340.773H970.651ZM1005.95 207.136C1005.95 217.013 1007.34 225.664 1010.12 233.088C1012.98 240.512 1017.05 246.312 1022.36 250.489C1027.72 254.598 1034.22 256.653 1041.84 256.653C1049.8 256.653 1056.46 254.532 1061.83 250.29C1067.2 245.981 1071.24 240.115 1073.96 232.69C1076.74 225.2 1078.14 216.682 1078.14 207.136C1078.14 197.657 1076.78 189.239 1074.06 181.881C1071.34 174.523 1067.3 168.756 1061.93 164.58C1056.56 160.403 1049.86 158.315 1041.84 158.315C1034.15 158.315 1027.62 160.337 1022.26 164.381C1016.89 168.424 1012.81 174.092 1010.03 181.384C1007.31 188.675 1005.95 197.259 1005.95 207.136ZM1285.7 283.5H1216.69V79.8636H1287.09C1307.31 79.8636 1324.68 83.9403 1339.19 92.0938C1353.78 100.181 1364.98 111.814 1372.8 126.994C1380.62 142.174 1384.54 160.337 1384.54 181.483C1384.54 202.695 1380.59 220.924 1372.7 236.17C1364.88 251.417 1353.58 263.116 1338.8 271.27C1324.08 279.423 1306.38 283.5 1285.7 283.5ZM1253.58 251.582H1283.91C1298.1 251.582 1309.93 248.997 1319.41 243.827C1328.89 238.59 1336.01 230.801 1340.79 220.46C1345.56 210.053 1347.94 197.061 1347.94 181.483C1347.94 165.905 1345.56 152.979 1340.79 142.705C1336.01 132.364 1328.95 124.641 1319.61 119.537C1310.33 114.366 1298.79 111.781 1285 111.781H1253.58V251.582ZM1484.61 286.483C1469.7 286.483 1456.77 283.202 1445.84 276.639C1434.9 270.077 1426.41 260.896 1420.38 249.097C1414.41 237.297 1411.43 223.509 1411.43 207.733C1411.43 191.956 1414.41 178.135 1420.38 166.27C1426.41 154.404 1434.9 145.19 1445.84 138.628C1456.77 132.065 1469.7 128.784 1484.61 128.784C1499.53 128.784 1512.45 132.065 1523.39 138.628C1534.33 145.19 1542.78 154.404 1548.75 166.27C1554.78 178.135 1557.8 191.956 1557.8 207.733C1557.8 223.509 1554.78 237.297 1548.75 249.097C1542.78 260.896 1534.33 270.077 1523.39 276.639C1512.45 283.202 1499.53 286.483 1484.61 286.483ZM1484.81 257.648C1492.9 257.648 1499.66 255.427 1505.1 250.986C1510.53 246.478 1514.58 240.446 1517.23 232.889C1519.95 225.332 1521.3 216.914 1521.3 207.634C1521.3 198.287 1519.95 189.835 1517.23 182.278C1514.58 174.655 1510.53 168.59 1505.1 164.082C1499.66 159.575 1492.9 157.321 1484.81 157.321C1476.53 157.321 1469.63 159.575 1464.13 164.082C1458.7 168.59 1454.62 174.655 1451.9 182.278C1449.25 189.835 1447.92 198.287 1447.92 207.634C1447.92 216.914 1449.25 225.332 1451.9 232.889C1454.62 240.446 1458.7 246.478 1464.13 250.986C1469.63 255.427 1476.53 257.648 1484.81 257.648ZM1654.97 286.483C1639.72 286.483 1626.63 283.135 1615.69 276.44C1604.82 269.745 1596.43 260.498 1590.53 248.699C1584.7 236.833 1581.78 223.178 1581.78 207.733C1581.78 192.222 1584.77 178.533 1590.73 166.668C1596.7 154.736 1605.12 145.455 1615.99 138.827C1626.93 132.132 1639.85 128.784 1654.77 128.784C1667.16 128.784 1678.13 131.071 1687.68 135.645C1697.29 140.152 1704.95 146.549 1710.65 154.835C1716.35 163.055 1719.6 172.667 1720.39 183.67H1685.99C1684.6 176.312 1681.28 170.181 1676.04 165.276C1670.87 160.304 1663.95 157.818 1655.26 157.818C1647.91 157.818 1641.44 159.807 1635.87 163.784C1630.31 167.695 1625.96 173.33 1622.85 180.688C1619.8 188.045 1618.27 196.862 1618.27 207.136C1618.27 217.544 1619.8 226.492 1622.85 233.983C1625.9 241.407 1630.17 247.141 1635.68 251.185C1641.24 255.162 1647.77 257.151 1655.26 257.151C1660.57 257.151 1665.31 256.156 1669.48 254.168C1673.72 252.113 1677.27 249.163 1680.12 245.318C1682.97 241.473 1684.93 236.8 1685.99 231.298H1720.39C1719.53 242.103 1716.35 251.682 1710.85 260.034C1705.34 268.32 1697.85 274.816 1688.37 279.523C1678.9 284.163 1667.76 286.483 1654.97 286.483ZM1870.66 171.142L1837.85 174.722C1836.92 171.407 1835.29 168.292 1832.97 165.375C1830.72 162.458 1827.67 160.105 1823.83 158.315C1819.98 156.526 1815.27 155.631 1809.71 155.631C1802.22 155.631 1795.92 157.255 1790.81 160.503C1785.78 163.751 1783.29 167.96 1783.36 173.131C1783.29 177.572 1784.91 181.185 1788.23 183.969C1791.61 186.753 1797.18 189.04 1804.93 190.83L1830.98 196.398C1845.44 199.513 1856.17 204.452 1863.2 211.213C1870.29 217.974 1873.87 226.824 1873.94 237.761C1873.87 247.373 1871.06 255.858 1865.49 263.216C1859.99 270.508 1852.33 276.208 1842.52 280.318C1832.71 284.428 1821.44 286.483 1808.71 286.483C1790.02 286.483 1774.97 282.572 1763.57 274.75C1752.17 266.862 1745.37 255.891 1743.19 241.838L1778.29 238.457C1779.88 245.351 1783.26 250.555 1788.43 254.068C1793.6 257.581 1800.33 259.338 1808.61 259.338C1817.16 259.338 1824.02 257.581 1829.19 254.068C1834.43 250.555 1837.05 246.213 1837.05 241.043C1837.05 236.668 1835.36 233.055 1831.98 230.205C1828.66 227.354 1823.49 225.167 1816.47 223.642L1790.42 218.173C1775.77 215.124 1764.93 209.987 1757.9 202.761C1750.88 195.47 1747.4 186.256 1747.46 175.119C1747.4 165.706 1749.95 157.553 1755.12 150.659C1760.35 143.699 1767.61 138.33 1776.89 134.551C1786.24 130.706 1797.01 128.784 1809.21 128.784C1827.11 128.784 1841.19 132.596 1851.47 140.219C1861.81 147.842 1868.21 158.15 1870.66 171.142Z" fill="url(#paint2_linear_307_7)"/>
<defs>
<linearGradient id="paint0_linear_307_7" x1="150" y1="364" x2="216.5" y2="133" gradientUnits="userSpaceOnUse">
<stop stop-color="#2D2D2D"/>
<stop offset="0.155" stop-color="#4C4B4B"/>
<stop offset="0.395" stop-color="#848484"/>
<stop offset="0.68" stop-color="#D4D4D4"/>
<stop offset="0.97" stop-color="white"/>
</linearGradient>
<linearGradient id="paint1_linear_307_7" x1="-48" y1="339.801" x2="212.429" y2="43.4758" gradientUnits="userSpaceOnUse">
<stop offset="0.0904907" stop-color="#191919"/>
<stop offset="0.216267" stop-color="#191919"/>
<stop offset="0.351702" stop-color="#494949"/>
<stop offset="0.532434" stop-color="#B3B4B2"/>
<stop offset="0.647998" stop-color="#ECEDEA"/>
<stop offset="1" stop-color="#ECEDEA"/>
</linearGradient>
<linearGradient id="paint2_linear_307_7" x1="1029.77" y1="315.013" x2="1029.98" y2="84.9863" gradientUnits="userSpaceOnUse">
<stop stop-color="#757575"/>
<stop offset="0.62" stop-color="white"/>
<stop offset="0.999347" stop-color="white"/>
</linearGradient>
</defs>
</svg>
