<svg width="1886" height="361" viewBox="0 0 1886 361" fill="none" xmlns="http://www.w3.org/2000/svg">
<path d="M300 80L150 160.5V361L300 280V80Z" fill="black"/>
<path d="M1.05993 80.0014L150 0.566665L298.94 80.0014L150 159.933L1.05993 80.0014Z" fill="white" stroke="#E9E9E9"/>
<path d="M150 1L299 80.5L150 160.5L1 80.5L150 1Z" fill="white"/>
<path d="M0 80L150 160.5V361L0 280V80Z" fill="url(#paint0_linear_307_36)"/>
<path d="M387.085 282V78.3636H463.449C479.093 78.3636 492.218 81.2803 502.824 87.1136C513.496 92.947 521.55 100.968 526.986 111.176C532.488 121.318 535.239 132.852 535.239 145.778C535.239 158.837 532.488 170.437 526.986 180.58C521.484 190.722 513.364 198.709 502.625 204.543C491.886 210.31 478.662 213.193 462.952 213.193H412.341V182.866H457.98C467.128 182.866 474.618 181.276 480.452 178.094C486.285 174.912 490.594 170.537 493.378 164.969C496.228 159.401 497.653 153.004 497.653 145.778C497.653 138.553 496.228 132.189 493.378 126.688C490.594 121.186 486.252 116.91 480.352 113.861C474.519 110.745 466.995 109.188 457.781 109.188H423.974V282H387.085ZM601.684 78.3636V282H565.69V78.3636H601.684ZM706.311 284.983C690.999 284.983 677.774 281.801 666.638 275.438C655.568 269.008 647.05 259.926 641.084 248.193C635.118 236.394 632.135 222.507 632.135 206.531C632.135 190.821 635.118 177.033 641.084 165.168C647.116 153.236 655.535 143.955 666.339 137.327C677.144 130.632 689.839 127.284 704.422 127.284C713.835 127.284 722.717 128.809 731.07 131.858C739.488 134.841 746.912 139.481 753.342 145.778C759.839 152.076 764.943 160.097 768.655 169.841C772.367 179.519 774.223 191.053 774.223 204.443V215.48H649.038V191.219H739.72C739.654 184.325 738.162 178.193 735.246 172.824C732.329 167.388 728.252 163.113 723.016 159.997C717.845 156.882 711.813 155.324 704.919 155.324C697.561 155.324 691.098 157.114 685.53 160.693C679.962 164.206 675.62 168.847 672.504 174.614C669.455 180.314 667.897 186.579 667.831 193.406V214.585C667.831 223.468 669.455 231.091 672.703 237.455C675.951 243.752 680.492 248.591 686.325 251.972C692.159 255.286 698.986 256.943 706.808 256.943C712.045 256.943 716.785 256.214 721.027 254.756C725.269 253.231 728.948 251.01 732.064 248.094C735.179 245.177 737.533 241.564 739.124 237.256L772.732 241.034C770.61 249.917 766.567 257.672 760.601 264.301C754.701 270.864 747.144 275.968 737.93 279.614C728.716 283.193 718.177 284.983 706.311 284.983ZM872.288 284.983C856.975 284.983 843.751 281.801 832.614 275.438C821.544 269.008 813.026 259.926 807.06 248.193C801.094 236.394 798.112 222.507 798.112 206.531C798.112 190.821 801.094 177.033 807.06 165.168C813.093 153.236 821.511 143.955 832.316 137.327C843.121 130.632 855.815 127.284 870.398 127.284C879.811 127.284 888.694 128.809 897.046 131.858C905.465 134.841 912.889 139.481 919.319 145.778C925.815 152.076 930.919 160.097 934.631 169.841C938.344 179.519 940.2 191.053 940.2 204.443V215.48H815.015V191.219H905.697C905.63 184.325 904.139 178.193 901.222 172.824C898.306 167.388 894.229 163.113 888.992 159.997C883.822 156.882 877.79 155.324 870.896 155.324C863.538 155.324 857.075 157.114 851.506 160.693C845.938 164.206 841.596 168.847 838.481 174.614C835.432 180.314 833.874 186.579 833.808 193.406V214.585C833.808 223.468 835.432 231.091 838.68 237.455C841.928 243.752 846.469 248.591 852.302 251.972C858.135 255.286 864.963 256.943 872.785 256.943C878.022 256.943 882.761 256.214 887.004 254.756C891.246 253.231 894.925 251.01 898.04 248.094C901.156 245.177 903.509 241.564 905.1 237.256L938.708 241.034C936.587 249.917 932.543 257.672 926.577 264.301C920.678 270.864 913.121 275.968 903.907 279.614C894.693 283.193 884.153 284.983 872.288 284.983ZM970.651 339.273V129.273H1006.05V154.528H1008.14C1009.99 150.816 1012.61 146.872 1015.99 142.696C1019.37 138.454 1023.95 134.841 1029.71 131.858C1035.48 128.809 1042.84 127.284 1051.79 127.284C1063.59 127.284 1074.23 130.3 1083.7 136.332C1093.25 142.298 1100.81 151.148 1106.38 162.881C1112.01 174.547 1114.83 188.866 1114.83 205.835C1114.83 222.606 1112.08 236.858 1106.57 248.591C1101.07 260.324 1093.58 269.273 1084.1 275.438C1074.62 281.602 1063.88 284.685 1051.89 284.685C1043.14 284.685 1035.88 283.226 1030.11 280.31C1024.34 277.393 1019.7 273.88 1016.19 269.77C1012.74 265.594 1010.06 261.65 1008.14 257.938H1006.64V339.273H970.651ZM1005.95 205.636C1005.95 215.513 1007.34 224.164 1010.12 231.588C1012.98 239.012 1017.05 244.812 1022.36 248.989C1027.72 253.098 1034.22 255.153 1041.84 255.153C1049.8 255.153 1056.46 253.032 1061.83 248.79C1067.2 244.481 1071.24 238.615 1073.96 231.19C1076.74 223.7 1078.14 215.182 1078.14 205.636C1078.14 196.157 1076.78 187.739 1074.06 180.381C1071.34 173.023 1067.3 167.256 1061.93 163.08C1056.56 158.903 1049.86 156.815 1041.84 156.815C1034.15 156.815 1027.62 158.837 1022.26 162.881C1016.89 166.924 1012.81 172.592 1010.03 179.884C1007.31 187.175 1005.95 195.759 1005.95 205.636ZM1285.7 282H1216.69V78.3636H1287.09C1307.31 78.3636 1324.68 82.4403 1339.19 90.5938C1353.78 98.6809 1364.98 110.314 1372.8 125.494C1380.62 140.674 1384.54 158.837 1384.54 179.983C1384.54 201.195 1380.59 219.424 1372.7 234.67C1364.88 249.917 1353.58 261.616 1338.8 269.77C1324.08 277.923 1306.38 282 1285.7 282ZM1253.58 250.082H1283.91C1298.1 250.082 1309.93 247.497 1319.41 242.327C1328.89 237.09 1336.01 229.301 1340.79 218.96C1345.56 208.553 1347.94 195.561 1347.94 179.983C1347.94 164.405 1345.56 151.479 1340.79 141.205C1336.01 130.864 1328.95 123.141 1319.61 118.037C1310.33 112.866 1298.79 110.281 1285 110.281H1253.58V250.082ZM1484.61 284.983C1469.7 284.983 1456.77 281.702 1445.84 275.139C1434.9 268.577 1426.41 259.396 1420.38 247.597C1414.41 235.797 1411.43 222.009 1411.43 206.233C1411.43 190.456 1414.41 176.635 1420.38 164.77C1426.41 152.904 1434.9 143.69 1445.84 137.128C1456.77 130.565 1469.7 127.284 1484.61 127.284C1499.53 127.284 1512.45 130.565 1523.39 137.128C1534.33 143.69 1542.78 152.904 1548.75 164.77C1554.78 176.635 1557.8 190.456 1557.8 206.233C1557.8 222.009 1554.78 235.797 1548.75 247.597C1542.78 259.396 1534.33 268.577 1523.39 275.139C1512.45 281.702 1499.53 284.983 1484.61 284.983ZM1484.81 256.148C1492.9 256.148 1499.66 253.927 1505.1 249.486C1510.53 244.978 1514.58 238.946 1517.23 231.389C1519.95 223.832 1521.3 215.414 1521.3 206.134C1521.3 196.787 1519.95 188.335 1517.23 180.778C1514.58 173.155 1510.53 167.09 1505.1 162.582C1499.66 158.075 1492.9 155.821 1484.81 155.821C1476.53 155.821 1469.63 158.075 1464.13 162.582C1458.7 167.09 1454.62 173.155 1451.9 180.778C1449.25 188.335 1447.92 196.787 1447.92 206.134C1447.92 215.414 1449.25 223.832 1451.9 231.389C1454.62 238.946 1458.7 244.978 1464.13 249.486C1469.63 253.927 1476.53 256.148 1484.81 256.148ZM1654.97 284.983C1639.72 284.983 1626.63 281.635 1615.69 274.94C1604.82 268.245 1596.43 258.998 1590.53 247.199C1584.7 235.333 1581.78 221.678 1581.78 206.233C1581.78 190.722 1584.77 177.033 1590.73 165.168C1596.7 153.236 1605.12 143.955 1615.99 137.327C1626.93 130.632 1639.85 127.284 1654.77 127.284C1667.16 127.284 1678.13 129.571 1687.68 134.145C1697.29 138.652 1704.95 145.049 1710.65 153.335C1716.35 161.555 1719.6 171.167 1720.39 182.17H1685.99C1684.6 174.812 1681.28 168.681 1676.04 163.776C1670.87 158.804 1663.95 156.318 1655.26 156.318C1647.91 156.318 1641.44 158.307 1635.87 162.284C1630.31 166.195 1625.96 171.83 1622.85 179.188C1619.8 186.545 1618.27 195.362 1618.27 205.636C1618.27 216.044 1619.8 224.992 1622.85 232.483C1625.9 239.907 1630.17 245.641 1635.68 249.685C1641.24 253.662 1647.77 255.651 1655.26 255.651C1660.57 255.651 1665.31 254.656 1669.48 252.668C1673.72 250.613 1677.27 247.663 1680.12 243.818C1682.97 239.973 1684.93 235.3 1685.99 229.798H1720.39C1719.53 240.603 1716.35 250.182 1710.85 258.534C1705.34 266.82 1697.85 273.316 1688.37 278.023C1678.9 282.663 1667.76 284.983 1654.97 284.983ZM1870.66 169.642L1837.85 173.222C1836.92 169.907 1835.29 166.792 1832.97 163.875C1830.72 160.958 1827.67 158.605 1823.83 156.815C1819.98 155.026 1815.27 154.131 1809.71 154.131C1802.22 154.131 1795.92 155.755 1790.81 159.003C1785.78 162.251 1783.29 166.46 1783.36 171.631C1783.29 176.072 1784.91 179.685 1788.23 182.469C1791.61 185.253 1797.18 187.54 1804.93 189.33L1830.98 194.898C1845.44 198.013 1856.17 202.952 1863.2 209.713C1870.29 216.474 1873.87 225.324 1873.94 236.261C1873.87 245.873 1871.06 254.358 1865.49 261.716C1859.99 269.008 1852.33 274.708 1842.52 278.818C1832.71 282.928 1821.44 284.983 1808.71 284.983C1790.02 284.983 1774.97 281.072 1763.57 273.25C1752.17 265.362 1745.37 254.391 1743.19 240.338L1778.29 236.957C1779.88 243.851 1783.26 249.055 1788.43 252.568C1793.6 256.081 1800.33 257.838 1808.61 257.838C1817.16 257.838 1824.02 256.081 1829.19 252.568C1834.43 249.055 1837.05 244.713 1837.05 239.543C1837.05 235.168 1835.36 231.555 1831.98 228.705C1828.66 225.854 1823.49 223.667 1816.47 222.142L1790.42 216.673C1775.77 213.624 1764.93 208.487 1757.9 201.261C1750.88 193.97 1747.4 184.756 1747.46 173.619C1747.4 164.206 1749.95 156.053 1755.12 149.159C1760.35 142.199 1767.61 136.83 1776.89 133.051C1786.24 129.206 1797.01 127.284 1809.21 127.284C1827.11 127.284 1841.19 131.096 1851.47 138.719C1861.81 146.342 1868.21 156.65 1870.66 169.642Z" fill="url(#paint1_linear_307_36)"/>
<defs>
<linearGradient id="paint0_linear_307_36" x1="-48" y1="337" x2="210" y2="41" gradientUnits="userSpaceOnUse">
<stop offset="0.0904907" stop-color="#191919"/>
<stop offset="0.216267" stop-color="#191919"/>
<stop offset="0.351702" stop-color="#494949"/>
<stop offset="0.532434" stop-color="#B3B4B2"/>
<stop offset="0.647998" stop-color="#ECEDEA"/>
<stop offset="1" stop-color="#ECEDEA"/>
</linearGradient>
<linearGradient id="paint1_linear_307_36" x1="1067.62" y1="-33.5" x2="1070.12" y2="334.551" gradientUnits="userSpaceOnUse">
<stop stop-color="#757575"/>
<stop offset="0.999347"/>
</linearGradient>
</defs>
</svg>
